<?xml version="1.0" encoding="iso-8859-1"?>
<!-- Generator: Adobe Illustrator 19.0.0, SVG Export Plug-In . SVG Version: 6.00 Build 0)  -->
<svg version="1.1" id="Layer_1" xmlns="http://www.w3.org/2000/svg" xmlns:xlink="http://www.w3.org/1999/xlink" x="0px" y="0px"
	 viewBox="0 0 512 512" style="enable-background:new 0 0 512 512;" xml:space="preserve" fill="#e3252e">
<g>
	<g>
		<path d="M333.187,237.405c32.761-23.893,54.095-62.561,54.095-106.123C387.282,58.893,328.389,0,256,0
			S124.718,58.893,124.718,131.282c0,43.562,21.333,82.23,54.095,106.123C97.373,268.57,39.385,347.531,39.385,439.795
			c0,39.814,32.391,72.205,72.205,72.205H400.41c39.814,0,72.205-32.391,72.205-72.205
			C472.615,347.531,414.627,268.57,333.187,237.405z M164.103,131.282c0-50.672,41.225-91.897,91.897-91.897
			s91.897,41.225,91.897,91.897S306.672,223.18,256,223.18S164.103,181.954,164.103,131.282z M400.41,472.615H111.59
			c-18.097,0-32.82-14.723-32.82-32.821c0-97.726,79.504-177.231,177.231-177.231s177.231,79.504,177.231,177.231
			C433.231,457.892,418.508,472.615,400.41,472.615z"/>
	</g>
</g>
<g>
</g>
<g>
</g>
<g>
</g>
<g>
</g>
<g>
</g>
<g>
</g>
<g>
</g>
<g>
</g>
<g>
</g>
<g>
</g>
<g>
</g>
<g>
</g>
<g>
</g>
<g>
</g>
<g>
</g>
</svg>
