<?xml version="1.0" encoding="iso-8859-1"?>
<!-- Generator: Adobe Illustrator 19.0.0, SVG Export Plug-In . SVG Version: 6.00 Build 0)  -->
<svg version="1.1" id="Capa_1" xmlns="http://www.w3.org/2000/svg" xmlns:xlink="http://www.w3.org/1999/xlink" x="0px" y="0px"
	 viewBox="0 0 512 512" style="enable-background:new 0 0 512 512; color: #e3252e;" fill="#e3252e" xml:space="preserve">
<g>
	<g>
		<path d="M374,39.221c-42.59,0-79.926,18.991-107.971,54.921c-3.74,4.792-7.074,9.586-10.029,14.229
			c-2.955-4.644-6.289-9.437-10.029-14.229C217.926,58.212,180.59,39.221,138,39.221c-80.456,0-138,67.367-138,148.204
			c0,92.433,75.757,179.547,245.637,282.46c3.185,1.929,6.774,2.894,10.363,2.894s7.178-0.964,10.363-2.893
			C436.243,366.973,512,279.859,512,187.426C512,106.631,454.503,39.221,374,39.221z M419.157,302.52
			C383.79,341.982,330.345,383.534,256,429.343c-74.345-45.809-127.79-87.361-163.157-126.822C57.285,262.845,40,225.197,40,187.426
			c0-58.204,39.334-108.205,98-108.205c29.876,0,55.35,12.99,75.715,38.61c16.284,20.489,23.145,41.646,23.193,41.797
			c2.605,8.355,10.341,14.046,19.093,14.046c8.752,0,16.488-5.69,19.093-14.046c0.063-0.202,6.718-20.699,22.467-40.875
			C318.036,92.521,343.754,79.22,374,79.22c58.728,0,98,50.049,98,108.205C472,225.196,454.715,262.844,419.157,302.52z"/>
	</g>
</g>
<g>
</g>
<g>
</g>
<g>
</g>
<g>
</g>
<g>
</g>
<g>
</g>
<g>
</g>
<g>
</g>
<g>
</g>
<g>
</g>
<g>
</g>
<g>
</g>
<g>
</g>
<g>
</g>
<g>
</g>
</svg>
